# xmcd
#
# Track frame offsets:
#	150
#	13134
#	25624
#	45936
#	60769
#	74319
#	86316
#	97201
#	107416
#	119109
#	134321
#	144911
#	157239
#	172381
#	184084
#	196711
#	209274
#	221809
#	236394
#	248259
#	263909
#	276039
#	290856
#	304594
#	316986
#	331174
#	341824
#
# Disc length: 4709 seconds
#
# Revision: 0
# Processed by: cddbd v1.5.2PL0 Copyright (c) Steve Scherf et al.
# Submitted via: audiograbber 1.83.01
#
DISCID=8812631b
DTITLE=Perry Como - Magic Moments CD2
DYEAR=1900
DGENRE=
TTITLE0=Love Makes The World Go Round
TTITLE1=Mandolins In The MoonLight
TTITLE2=Killing Me Softly With Her Song
TTITLE3=We Kiss In A Shadow
TTITLE4=Tie a Yellow Ribbon Around The Ole Oak Tree
TTITLE5=Where You`re Concerned
TTITLE6=Walk Right Back
TTITLE7=Juke Box Baby
TTITLE8=The Most Beautiful Girl
TTITLE9=Moon River
TTITLE10=I Know
TTITLE11=Don`t Let The Stars Get In Your Eyes
TTITLE12=I Let My Heart In San Francisco
TTITLE13=Hawaiian Wedding Song
TTITLE14=Seattle
TTITLE15=Days Of Wine And Roses
TTITLE16=Beyond Tomorrow
TTITLE17=Ivy Rose
TTITLE18=More
TTITLE19=We`ve Only Just Begun
TTITLE20=Papa Loves Mambo
TTITLE21=Close To You
TTITLE22=Let`s Do It Again
TTITLE23=Glendora
TTITLE24=There`s A Kind Of Hush
TTITLE25=Delaware
TTITLE26=Tina Marie
EXTD=
EXTT0=
EXTT1=
EXTT2=
EXTT3=
EXTT4=
EXTT5=
EXTT6=
EXTT7=
EXTT8=
EXTT9=
EXTT10=
EXTT11=
EXTT12=
EXTT13=
EXTT14=
EXTT15=
EXTT16=
EXTT17=
EXTT18=
EXTT19=
EXTT20=
EXTT21=
EXTT22=
EXTT23=
EXTT24=
EXTT25=
EXTT26=
PLAYORDER=
